<svg xmlns="http://www.w3.org/2000/svg" viewBox="0 0 512 512"><rect width="512" height="512" rx="0" fill="#a4492a"/><g transform="translate(20.5 20.5) scale(0.92)"><path d="M256 150C218 124 164 116 108 122V358C164 352 218 360 256 386Z" fill="#faf8f3"/><path d="M256 150C294 124 348 116 404 122V358C348 352 294 360 256 386Z" fill="none" stroke="#faf8f3" stroke-width="20" stroke-linejoin="round"/><path d="M140 172C172 168 202 174 226 186" fill="none" stroke="#a4492a" stroke-width="12" stroke-linecap="round" opacity="0.6"/><path d="M140 216C172 212 202 218 226 230" fill="none" stroke="#a4492a" stroke-width="12" stroke-linecap="round" opacity="0.6"/><path d="M140 260C172 256 202 262 226 274" fill="none" stroke="#a4492a" stroke-width="12" stroke-linecap="round" opacity="0.6"/></g></svg>